<svg xmlns="http://www.w3.org/2000/svg" width="249.9" height="203.2" viewBox="0 0 249.9 203.2">
  <g id="Logo__x2014__FIXED" transform="translate(-75.1 -98.4)">
    <g id="Group_1" data-name="Group 1">
      <path id="Path_1" data-name="Path 1" d="M153.6,301.6c94.3,0,145.9-78.2,145.9-145.9,0-2.2,0-4.4-.1-6.6A104.467,104.467,0,0,0,325,122.5a103.927,103.927,0,0,1-29.5,8.1,51.591,51.591,0,0,0,22.6-28.4,102,102,0,0,1-32.6,12.4,51.291,51.291,0,0,0-88.7,35.1,56.677,56.677,0,0,0,1.3,11.7A145.613,145.613,0,0,1,92.4,107.8a51.485,51.485,0,0,0,15.9,68.5,51.867,51.867,0,0,1-23.2-6.4v.7a51.386,51.386,0,0,0,41.1,50.3,51.577,51.577,0,0,1-23.1.9A51.276,51.276,0,0,0,151,257.4a102.848,102.848,0,0,1-63.7,22,98.679,98.679,0,0,1-12.2-.7,145.862,145.862,0,0,0,78.5,22.9" fill="#fff"/>
    </g>
  </g>
</svg>
